<svg width="1536" height="533" viewBox="0 0 1536 533" fill="none" xmlns="http://www.w3.org/2000/svg">
<path d="M1252.46 266.757C1252.46 210.052 1295.23 163.918 1351.46 163.918C1408.16 163.918 1450.93 210.052 1450.93 266.757C1450.93 322.982 1408.16 369.115 1351.46 369.115C1295.23 369.115 1252.46 322.982 1252.46 266.757Z" stroke="white"/>
<path d="M1192.39 266.757C1192.39 354.217 1264 425.82 1351.46 425.82C1439.4 425.82 1511 354.217 1511 266.757C1511 178.816 1439.4 107.213 1351.46 107.213C1264 107.213 1192.39 178.816 1192.39 266.757Z" stroke="white"/>
<path d="M1196.99 107.213C1114.33 107.213 1047.05 177.96 1047.05 263.548V425.82H1107.12V260.58C1107.12 209.128 1147.01 165.591 1196.99 165.591V107.213Z" stroke="white"/>
<path d="M1023.05 25.9998H959.621V140.371C933.19 119.708 900.513 107.213 863.51 107.213C775.569 107.213 703.966 178.816 703.966 266.276C703.966 354.218 779.894 425.82 882.732 425.82H894.746V367.673C884.174 367.673 872.16 367.192 862.068 366.231C809.688 359.984 764.516 323.462 764.516 266.276C764.516 207.649 811.13 166.321 863.991 166.321C925.982 166.321 962.023 205.246 962.023 283.096V311.929H1023.05L1023.05 25.9998Z" stroke="white"/>
<path d="M625.183 303.279H679.966V278.771C679.966 164.879 596.35 107.213 523.306 107.213C435.365 107.213 364.723 178.335 364.723 266.757C364.723 354.217 435.365 425.82 523.306 425.82H555.503V369.115C544.931 369.115 533.878 369.115 523.306 368.153C461.315 363.828 424.793 318.656 424.793 265.796C424.793 212.454 462.276 163.918 524.267 163.918C580.492 163.918 618.456 206.688 618.456 246.574H487.265V303.279H625.183Z" stroke="white"/>
<path d="M25 507.033H85.0692V392.661C107.175 414.767 148.022 425.82 181.18 425.82C269.121 425.82 340.723 354.217 340.723 266.757C340.723 178.815 264.796 107.213 161.958 107.213H149.944V163.918C160.516 163.918 172.53 164.399 182.621 165.36C235.002 171.607 280.654 209.571 280.654 266.757C280.654 327.306 238.366 369.114 185.505 369.114C117.266 369.114 82.6664 320.578 82.6664 249.937V221.585H25V507.033Z" stroke="white"/>
</svg>
