<svg viewBox="0 0 18 18" fill="none" xmlns="http://www.w3.org/2000/svg">
<path fill-rule="evenodd" clip-rule="evenodd" d="M17.884 8.73603L9.242 0.103026C9.20948 0.070372 9.17083 0.0444612 9.12827 0.0267812C9.08572 0.00910118 9.04009 0 8.994 0C8.94792 0 8.90228 0.00910118 8.85973 0.0267812C8.81717 0.0444612 8.77852 0.070372 8.746 0.103026L0.103 8.73603C0.0703504 8.76855 0.0444445 8.8072 0.026769 8.84976C0.00909359 8.89231 -3.44998e-06 8.93794 9.81475e-10 8.98403V17.618C9.81475e-10 17.812 0.157 17.968 0.351 17.968H6.001C6.09383 17.968 6.18285 17.9312 6.24849 17.8655C6.31413 17.7999 6.351 17.7109 6.351 17.618V11.992H11.636V17.618C11.636 17.812 11.794 17.968 11.987 17.968H17.637C17.7298 17.968 17.8188 17.9312 17.8845 17.8655C17.9501 17.7999 17.987 17.7109 17.987 17.618V8.98403C17.987 8.93794 17.9779 8.89231 17.9602 8.84976C17.9426 8.8072 17.9167 8.76855 17.884 8.73603Z" fill="currentColor"/>
</svg>
