<svg viewBox="0 0 2641 359" fill="none" xmlns="http://www.w3.org/2000/svg">
<mask id="path-1-inside-1_1335_392" fill="white">
<path d="M213.64 358.924L213.204 307.476C264.216 307.476 303.456 263.004 303.456 215.48C303.456 163.596 268.14 121.304 217.564 121.304H143.88V215.044C143.88 294.396 87.2 358.924 0 358.924V307.476C54.064 307.476 89.38 267.8 89.38 210.684V69.856H211.896C300.84 69.856 357.956 135.256 357.956 214.608C357.956 293.96 293.864 358.924 213.64 358.924ZM680.262 210.248V355H625.762V210.248C625.762 163.16 586.086 125.228 538.998 125.228C492.782 125.228 453.542 163.16 453.542 210.248V259.952H399.042V0.967984H455.286V99.068C479.266 80.756 507.606 69.856 539.434 69.856C617.042 69.856 680.262 133.076 680.262 210.248ZM723.385 214.608C723.385 134.82 788.349 69.856 867.701 69.856C947.489 69.856 1012.45 134.82 1012.45 214.608C1012.45 293.96 947.489 358.924 867.701 358.924C788.349 358.924 723.385 293.96 723.385 214.608ZM777.885 214.608C777.885 265.62 816.689 307.476 867.701 307.476C919.149 307.476 957.953 265.62 957.953 214.608C957.953 163.16 919.149 121.304 867.701 121.304C816.689 121.304 777.885 163.16 777.885 214.608ZM1487.72 358.924H1382.21C1351.69 358.924 1320.3 353.256 1298.06 332.764C1297.19 331.892 1295.45 330.148 1293.7 327.096V358.924H1196.91C1119.74 358.924 1057.39 298.32 1057.39 219.404V74.216H1111.89V213.736C1111.89 288.292 1161.16 307.476 1230.05 307.476H1242.69V74.216H1297.19V213.736C1297.19 307.476 1346.46 307.476 1415.35 307.476H1432.35V74.216H1487.72V358.924ZM1706.08 121.304H1667.28C1615.83 121.304 1579.21 167.52 1579.21 216.788C1579.21 264.748 1617.57 307.476 1671.64 307.476H1754.91V358.924H1671.64C1591.41 358.924 1524.71 294.396 1524.71 214.608C1524.71 138.744 1592.72 69.856 1671.64 69.856H1706.08V121.304ZM2062.45 213.736V355H2007.95V325.788C1990.51 342.356 1957.81 358.924 1918.57 358.924C1838.78 358.924 1774.25 293.96 1774.25 213.736C1774.25 134.384 1838.78 69.856 1918.57 69.856C1998.36 69.856 2062.45 134.384 2062.45 213.736ZM1826.57 212.864C1826.57 268.236 1869.74 307.476 1919.44 307.476C1972.63 307.476 2012.75 268.672 2012.75 212.864C2012.75 159.236 1970.45 121.304 1920.31 121.304C1867.12 121.304 1826.57 162.724 1826.57 212.864ZM2323.62 69.856V121.304C2278.72 122.612 2236.42 154.004 2233.81 214.608C2230.32 298.32 2172.33 358.924 2092.54 358.924V307.476C2142.25 307.476 2175.38 263.44 2179.31 214.608C2188.46 106.916 2254.74 69.856 2323.62 69.856ZM2590.91 247.744H2465.77V196.296H2584.8C2584.8 160.108 2550.36 121.304 2499.35 121.304C2443.1 121.304 2409.09 165.34 2409.09 213.736C2409.09 261.696 2442.23 302.68 2498.47 306.604C2508.07 307.476 2518.09 307.476 2527.69 307.476V358.924H2498.47C2418.69 358.924 2354.59 293.96 2354.59 214.608C2354.59 134.384 2418.69 69.856 2498.47 69.856C2564.75 69.856 2640.61 122.176 2640.61 225.508V247.744H2590.91Z"/>
</mask>
<path d="M213.64 358.924L211.64 358.941L211.657 360.924H213.64V358.924ZM213.204 307.476V305.476H211.187L211.204 307.493L213.204 307.476ZM143.88 121.304V119.304H141.88V121.304H143.88ZM0 358.924H-2V360.924H0V358.924ZM0 307.476V305.476H-2V307.476H0ZM89.38 69.856V67.856H87.38V69.856H89.38ZM215.64 358.907L215.204 307.459L211.204 307.493L211.64 358.941L215.64 358.907ZM213.204 309.476C265.418 309.476 305.456 264.008 305.456 215.48H301.456C301.456 262 263.014 305.476 213.204 305.476V309.476ZM305.456 215.48C305.456 162.721 269.461 119.304 217.564 119.304V123.304C266.819 123.304 301.456 164.471 301.456 215.48H305.456ZM217.564 119.304H143.88V123.304H217.564V119.304ZM141.88 121.304V215.044H145.88V121.304H141.88ZM141.88 215.044C141.88 293.364 86.0238 356.924 0 356.924V360.924C88.3762 360.924 145.88 295.428 145.88 215.044H141.88ZM2 358.924V307.476H-2V358.924H2ZM0 309.476C27.5481 309.476 50.4448 299.353 66.4405 281.848C82.4204 264.359 91.38 239.651 91.38 210.684H87.38C87.38 238.833 78.6816 262.521 63.4875 279.149C48.3092 295.761 26.5159 305.476 0 305.476V309.476ZM91.38 210.684V69.856H87.38V210.684H91.38ZM89.38 71.856H211.896V67.856H89.38V71.856ZM211.896 71.856C299.672 71.856 355.956 136.296 355.956 214.608H359.956C359.956 134.216 302.008 67.856 211.896 67.856V71.856ZM355.956 214.608C355.956 292.863 292.752 356.924 213.64 356.924V360.924C294.976 360.924 359.956 295.057 359.956 214.608H355.956ZM680.262 355V357H682.262V355H680.262ZM625.762 355H623.762V357H625.762V355ZM453.542 259.952V261.952H455.542V259.952H453.542ZM399.042 259.952H397.042V261.952H399.042V259.952ZM399.042 0.967984V-1.03202H397.042V0.967984H399.042ZM455.286 0.967984H457.286V-1.03202H455.286V0.967984ZM455.286 99.068H453.286V103.112L456.5 100.658L455.286 99.068ZM678.262 210.248V355H682.262V210.248H678.262ZM680.262 353H625.762V357H680.262V353ZM627.762 355V210.248H623.762V355H627.762ZM627.762 210.248C627.762 162.003 587.138 123.228 538.998 123.228V127.228C585.035 127.228 623.762 164.317 623.762 210.248H627.762ZM538.998 123.228C491.704 123.228 451.542 162.029 451.542 210.248H455.542C455.542 164.291 493.86 127.228 538.998 127.228V123.228ZM451.542 210.248V259.952H455.542V210.248H451.542ZM453.542 257.952H399.042V261.952H453.542V257.952ZM401.042 259.952V0.967984H397.042V259.952H401.042ZM399.042 2.96798H455.286V-1.03202H399.042V2.96798ZM453.286 0.967984V99.068H457.286V0.967984H453.286ZM456.5 100.658C480.169 82.583 508.09 71.856 539.434 71.856V67.856C507.122 67.856 478.363 78.929 454.072 97.4785L456.5 100.658ZM539.434 71.856C615.942 71.856 678.262 134.185 678.262 210.248H682.262C682.262 131.967 618.143 67.856 539.434 67.856V71.856ZM725.385 214.608C725.385 135.921 789.458 71.856 867.701 71.856V67.856C787.241 67.856 721.385 133.719 721.385 214.608H725.385ZM867.701 71.856C946.385 71.856 1010.45 135.925 1010.45 214.608H1014.45C1014.45 133.715 948.594 67.856 867.701 67.856V71.856ZM1010.45 214.608C1010.45 292.852 946.389 356.924 867.701 356.924V360.924C948.59 360.924 1014.45 295.068 1014.45 214.608H1010.45ZM867.701 356.924C789.454 356.924 725.385 292.855 725.385 214.608H721.385C721.385 295.065 787.245 360.924 867.701 360.924V356.924ZM775.885 214.608C775.885 266.636 815.498 309.476 867.701 309.476V305.476C817.88 305.476 779.885 264.604 779.885 214.608H775.885ZM867.701 309.476C920.334 309.476 959.953 266.643 959.953 214.608H955.953C955.953 264.597 917.965 305.476 867.701 305.476V309.476ZM959.953 214.608C959.953 162.144 920.34 119.304 867.701 119.304V123.304C917.959 123.304 955.953 164.176 955.953 214.608H959.953ZM867.701 119.304C815.492 119.304 775.885 162.15 775.885 214.608H779.885C779.885 164.17 817.886 123.304 867.701 123.304V119.304ZM1487.72 358.924V360.924H1489.72V358.924H1487.72ZM1298.06 332.764L1296.65 334.178L1296.68 334.207L1296.71 334.235L1298.06 332.764ZM1293.7 327.096L1295.44 326.104L1291.7 319.565V327.096H1293.7ZM1293.7 358.924V360.924H1295.7V358.924H1293.7ZM1057.39 74.216V72.216H1055.39V74.216H1057.39ZM1111.89 74.216H1113.89V72.216H1111.89V74.216ZM1242.69 307.476V309.476H1244.69V307.476H1242.69ZM1242.69 74.216V72.216H1240.69V74.216H1242.69ZM1297.19 74.216H1299.19V72.216H1297.19V74.216ZM1432.35 307.476V309.476H1434.35V307.476H1432.35ZM1432.35 74.216V72.216H1430.35V74.216H1432.35ZM1487.72 74.216H1489.72V72.216H1487.72V74.216ZM1487.72 356.924H1382.21V360.924H1487.72V356.924ZM1382.21 356.924C1351.86 356.924 1321.1 351.271 1299.42 331.293L1296.71 334.235C1319.5 355.241 1351.52 360.924 1382.21 360.924V356.924ZM1299.48 331.35C1298.65 330.524 1297.05 328.927 1295.44 326.104L1291.97 328.088C1293.84 331.369 1295.73 333.26 1296.65 334.178L1299.48 331.35ZM1291.7 327.096V358.924H1295.7V327.096H1291.7ZM1293.7 356.924H1196.91V360.924H1293.7V356.924ZM1196.91 356.924C1120.83 356.924 1059.39 297.199 1059.39 219.404H1055.39C1055.39 299.441 1118.65 360.924 1196.91 360.924V356.924ZM1059.39 219.404V74.216H1055.39V219.404H1059.39ZM1057.39 76.216H1111.89V72.216H1057.39V76.216ZM1109.89 74.216V213.736H1113.89V74.216H1109.89ZM1109.89 213.736C1109.89 251.506 1122.41 275.648 1144.02 290.223C1165.46 304.683 1195.5 309.476 1230.05 309.476V305.476C1195.71 305.476 1166.67 300.677 1146.26 286.906C1126.01 273.25 1113.89 250.522 1113.89 213.736H1109.89ZM1230.05 309.476H1242.69V305.476H1230.05V309.476ZM1244.69 307.476V74.216H1240.69V307.476H1244.69ZM1242.69 76.216H1297.19V72.216H1242.69V76.216ZM1295.19 74.216V213.736H1299.19V74.216H1295.19ZM1295.19 213.736C1295.19 260.913 1307.61 285.267 1329.46 297.504C1340.26 303.553 1353.19 306.523 1367.62 308.001C1382.05 309.478 1398.15 309.476 1415.35 309.476V305.476C1398.1 305.476 1382.21 305.474 1368.03 304.022C1353.85 302.57 1341.54 299.682 1331.41 294.013C1311.41 282.815 1299.19 260.299 1299.19 213.736H1295.19ZM1415.35 309.476H1432.35V305.476H1415.35V309.476ZM1434.35 307.476V74.216H1430.35V307.476H1434.35ZM1432.35 76.216H1487.72V72.216H1432.35V76.216ZM1485.72 74.216V358.924H1489.72V74.216H1485.72ZM1706.08 121.304V123.304H1708.08V121.304H1706.08ZM1754.91 307.476H1756.91V305.476H1754.91V307.476ZM1754.91 358.924V360.924H1756.91V358.924H1754.91ZM1706.08 69.856H1708.08V67.856H1706.08V69.856ZM1706.08 119.304H1667.28V123.304H1706.08V119.304ZM1667.28 119.304C1614.49 119.304 1577.21 166.663 1577.21 216.788H1581.21C1581.21 168.377 1617.17 123.304 1667.28 123.304V119.304ZM1577.21 216.788C1577.21 265.815 1616.43 309.476 1671.64 309.476V305.476C1618.72 305.476 1581.21 263.681 1581.21 216.788H1577.21ZM1671.64 309.476H1754.91V305.476H1671.64V309.476ZM1752.91 307.476V358.924H1756.91V307.476H1752.91ZM1754.91 356.924H1671.64V360.924H1754.91V356.924ZM1671.64 356.924C1592.48 356.924 1526.71 293.249 1526.71 214.608H1522.71C1522.71 295.543 1590.35 360.924 1671.64 360.924V356.924ZM1526.71 214.608C1526.71 139.86 1593.81 71.856 1671.64 71.856V67.856C1591.63 67.856 1522.71 137.628 1522.71 214.608H1526.71ZM1671.64 71.856H1706.08V67.856H1671.64V71.856ZM1704.08 69.856V121.304H1708.08V69.856H1704.08ZM2062.45 355V357H2064.45V355H2062.45ZM2007.95 355H2005.95V357H2007.95V355ZM2007.95 325.788H2009.95V321.129L2006.57 324.338L2007.95 325.788ZM2060.45 213.736V355H2064.45V213.736H2060.45ZM2062.45 353H2007.95V357H2062.45V353ZM2009.95 355V325.788H2005.95V355H2009.95ZM2006.57 324.338C1989.49 340.566 1957.28 356.924 1918.57 356.924V360.924C1958.34 360.924 1991.53 344.146 2009.33 327.238L2006.57 324.338ZM1918.57 356.924C1839.9 356.924 1776.25 292.867 1776.25 213.736H1772.25C1772.25 295.053 1837.67 360.924 1918.57 360.924V356.924ZM1776.25 213.736C1776.25 135.492 1839.88 71.856 1918.57 71.856V67.856C1837.68 67.856 1772.25 133.275 1772.25 213.736H1776.25ZM1918.57 71.856C1997.25 71.856 2060.45 135.485 2060.45 213.736H2064.45C2064.45 133.283 1999.47 67.856 1918.57 67.856V71.856ZM1824.57 212.864C1824.57 269.371 1868.66 309.476 1919.44 309.476V305.476C1870.81 305.476 1828.57 267.101 1828.57 212.864H1824.57ZM1919.44 309.476C1973.74 309.476 2014.75 269.777 2014.75 212.864H2010.75C2010.75 267.567 1971.53 305.476 1919.44 305.476V309.476ZM2014.75 212.864C2014.75 158.057 1971.48 119.304 1920.31 119.304V123.304C1969.43 123.304 2010.75 160.414 2010.75 212.864H2014.75ZM1920.31 119.304C1866.04 119.304 1824.57 161.601 1824.57 212.864H1828.57C1828.57 163.847 1868.21 123.304 1920.31 123.304V119.304ZM2323.62 69.856H2325.62V67.856H2323.62V69.856ZM2323.62 121.304L2323.68 123.303L2325.62 123.247V121.304H2323.62ZM2233.81 214.608L2231.81 214.522L2231.81 214.525L2233.81 214.608ZM2092.54 358.924H2090.54V360.924H2092.54V358.924ZM2092.54 307.476V305.476H2090.54V307.476H2092.54ZM2179.31 214.608L2177.32 214.439L2177.31 214.448L2179.31 214.608ZM2321.62 69.856V121.304H2325.62V69.856H2321.62ZM2323.57 119.305C2300.67 119.972 2278.39 128.31 2261.48 144.266C2244.56 160.24 2233.14 183.745 2231.81 214.522L2235.81 214.694C2237.09 184.867 2248.13 162.374 2264.23 147.174C2280.35 131.956 2301.67 123.944 2323.68 123.303L2323.57 119.305ZM2231.81 214.525C2228.36 297.296 2171.13 356.924 2092.54 356.924V360.924C2173.53 360.924 2232.28 299.344 2235.81 214.691L2231.81 214.525ZM2094.54 358.924V307.476H2090.54V358.924H2094.54ZM2092.54 309.476C2143.65 309.476 2177.33 264.234 2181.3 214.768L2177.31 214.448C2173.44 262.646 2140.84 305.476 2092.54 305.476V309.476ZM2181.3 214.777C2185.85 161.332 2204.53 125.675 2230.37 103.361C2256.24 81.0272 2289.52 71.856 2323.62 71.856V67.856C2288.84 67.856 2254.54 77.2148 2227.76 100.334C2200.96 123.473 2181.93 160.192 2177.32 214.439L2181.3 214.777ZM2465.77 247.744H2463.77V249.744H2465.77V247.744ZM2465.77 196.296V194.296H2463.77V196.296H2465.77ZM2584.8 196.296V198.296H2586.8V196.296H2584.8ZM2498.47 306.604L2498.66 304.612L2498.63 304.61L2498.61 304.609L2498.47 306.604ZM2527.69 307.476H2529.69V305.476H2527.69V307.476ZM2527.69 358.924V360.924H2529.69V358.924H2527.69ZM2640.61 247.744V249.744H2642.61V247.744H2640.61ZM2590.91 245.744H2465.77V249.744H2590.91V245.744ZM2467.77 247.744V196.296H2463.77V247.744H2467.77ZM2465.77 198.296H2584.8V194.296H2465.77V198.296ZM2586.8 196.296C2586.8 158.906 2551.36 119.304 2499.35 119.304V123.304C2549.35 123.304 2582.8 161.31 2582.8 196.296H2586.8ZM2499.35 119.304C2441.83 119.304 2407.09 164.416 2407.09 213.736H2411.09C2411.09 166.264 2444.38 123.304 2499.35 123.304V119.304ZM2407.09 213.736C2407.09 262.712 2441.01 304.6 2498.33 308.599L2498.61 304.609C2443.45 300.76 2411.09 260.68 2411.09 213.736H2407.09ZM2498.29 308.596C2507.99 309.477 2518.11 309.476 2527.69 309.476V305.476C2518.08 305.476 2508.14 305.475 2498.66 304.612L2498.29 308.596ZM2525.69 307.476V358.924H2529.69V307.476H2525.69ZM2527.69 356.924H2498.47V360.924H2527.69V356.924ZM2498.47 356.924C2419.8 356.924 2356.59 292.867 2356.59 214.608H2352.59C2352.59 295.053 2417.57 360.924 2498.47 360.924V356.924ZM2356.59 214.608C2356.59 135.477 2419.8 71.856 2498.47 71.856V67.856C2417.57 67.856 2352.59 133.291 2352.59 214.608H2356.59ZM2498.47 71.856C2563.73 71.856 2638.61 123.368 2638.61 225.508H2642.61C2642.61 120.984 2565.76 67.856 2498.47 67.856V71.856ZM2638.61 225.508V247.744H2642.61V225.508H2638.61ZM2640.61 245.744H2590.91V249.744H2640.61V245.744Z" fill="#F8F8F8" mask="url(#path-1-inside-1_1335_392)"/>
</svg>
