<svg viewBox="0 0 1493 280" fill="none" xmlns="http://www.w3.org/2000/svg">
<mask id="path-1-inside-1_1334_339" fill="white">
<path d="M0.816002 488.864V198.992H59.376V227.784C59.376 299.52 94.512 348.808 163.808 348.808C217.488 348.808 260.432 306.352 260.432 244.864C260.432 186.792 214.072 148.24 160.88 141.896C150.632 140.92 138.432 140.432 127.696 140.432V82.848H139.896C244.328 82.848 321.432 155.56 321.432 244.864C321.432 333.68 248.72 406.392 159.416 406.392C125.744 406.392 84.264 395.168 61.816 372.72V488.864H0.816002ZM604.88 281.952H464.824V224.368H598.048C598.048 183.864 559.496 140.432 502.4 140.432C439.448 140.432 401.384 189.72 401.384 243.888C401.384 297.568 438.472 343.44 501.424 347.832C512.16 348.808 523.384 348.808 534.12 348.808V406.392H501.424C412.12 406.392 340.384 333.68 340.384 244.864C340.384 155.072 412.12 82.848 501.424 82.848C575.6 82.848 660.512 141.408 660.512 257.064V281.952H604.88ZM1004.24 0.375993V290.736H942.26V261.456C942.26 182.4 905.659 142.872 842.707 142.872C789.027 142.872 741.691 184.84 741.691 244.376C741.691 302.448 787.563 339.536 840.755 345.88C851.003 346.856 863.203 347.344 873.939 347.344V406.392H861.739C757.307 406.392 680.203 333.68 680.203 244.376C680.203 155.56 752.915 82.848 842.219 82.848C879.795 82.848 912.98 95.536 939.82 116.52V0.375993H1004.24ZM1177.4 87.728V145.312C1126.64 145.312 1086.14 188.256 1086.14 239.008V402H1025.14V241.936C1025.14 157.512 1093.46 87.728 1177.4 87.728ZM1169 244.864C1169 155.56 1241.71 82.848 1330.52 82.848C1419.83 82.848 1492.54 155.56 1492.54 244.864C1492.54 333.68 1419.83 406.392 1330.52 406.392C1241.71 406.392 1169 333.68 1169 244.864ZM1230 244.864C1230 301.96 1273.43 348.808 1330.52 348.808C1388.11 348.808 1431.54 301.96 1431.54 244.864C1431.54 187.28 1388.11 140.432 1330.52 140.432C1273.43 140.432 1230 187.28 1230 244.864Z"/>
</mask>
<path d="M0.816002 488.864H-1.184V490.864H0.816002V488.864ZM0.816002 198.992V196.992H-1.184V198.992H0.816002ZM59.376 198.992H61.376V196.992H59.376V198.992ZM160.88 141.896L161.117 139.91L161.093 139.907L161.07 139.905L160.88 141.896ZM127.696 140.432H125.696V142.432H127.696V140.432ZM127.696 82.848V80.848H125.696V82.848H127.696ZM61.816 372.72L63.2302 371.306L59.816 367.892V372.72H61.816ZM61.816 488.864V490.864H63.816V488.864H61.816ZM2.816 488.864V198.992H-1.184V488.864H2.816ZM0.816002 200.992H59.376V196.992H0.816002V200.992ZM57.376 198.992V227.784H61.376V198.992H57.376ZM57.376 227.784C57.376 263.95 66.2305 294.709 84.0591 316.465C101.935 338.278 128.644 350.808 163.808 350.808V346.808C129.676 346.808 104.169 334.694 87.1529 313.929C70.0895 293.107 61.376 263.354 61.376 227.784H57.376ZM163.808 350.808C218.682 350.808 262.432 307.365 262.432 244.864H258.432C258.432 305.339 216.294 346.808 163.808 346.808V350.808ZM262.432 244.864C262.432 185.524 215.04 146.341 161.117 139.91L160.643 143.882C213.104 150.139 258.432 188.06 258.432 244.864H262.432ZM161.07 139.905C150.747 138.922 138.483 138.432 127.696 138.432V142.432C138.381 142.432 150.517 142.918 160.69 143.887L161.07 139.905ZM129.696 140.432V82.848H125.696V140.432H129.696ZM127.696 84.848H139.896V80.848H127.696V84.848ZM139.896 84.848C243.41 84.848 319.432 156.843 319.432 244.864H323.432C323.432 154.277 245.246 80.848 139.896 80.848V84.848ZM319.432 244.864C319.432 332.572 247.619 404.392 159.416 404.392V408.392C249.821 408.392 323.432 334.788 323.432 244.864H319.432ZM159.416 404.392C142.786 404.392 124.205 401.618 107.021 396.071C89.8205 390.518 74.1566 382.232 63.2302 371.306L60.4018 374.134C71.9234 385.656 88.2235 394.206 105.793 399.877C123.379 405.554 142.374 408.392 159.416 408.392V404.392ZM59.816 372.72V488.864H63.816V372.72H59.816ZM61.816 486.864H0.816002V490.864H61.816V486.864ZM464.824 281.952H462.824V283.952H464.824V281.952ZM464.824 224.368V222.368H462.824V224.368H464.824ZM598.048 224.368V226.368H600.048V224.368H598.048ZM501.424 347.832L501.605 345.84L501.584 345.838L501.563 345.837L501.424 347.832ZM534.12 348.808H536.12V346.808H534.12V348.808ZM534.12 406.392V408.392H536.12V406.392H534.12ZM660.512 281.952V283.952H662.512V281.952H660.512ZM604.88 279.952H464.824V283.952H604.88V279.952ZM466.824 281.952V224.368H462.824V281.952H466.824ZM464.824 226.368H598.048V222.368H464.824V226.368ZM600.048 224.368C600.048 182.662 560.501 138.432 502.4 138.432V142.432C558.491 142.432 596.048 185.066 596.048 224.368H600.048ZM502.4 138.432C438.171 138.432 399.384 188.796 399.384 243.888H403.384C403.384 190.644 440.725 142.432 502.4 142.432V138.432ZM399.384 243.888C399.384 298.584 437.251 345.36 501.285 349.827L501.563 345.837C439.693 341.52 403.384 296.552 403.384 243.888H399.384ZM501.243 349.824C512.085 350.809 523.401 350.808 534.12 350.808V346.808C523.367 346.808 512.235 346.807 501.605 345.84L501.243 349.824ZM532.12 348.808V406.392H536.12V348.808H532.12ZM534.12 404.392H501.424V408.392H534.12V404.392ZM501.424 404.392C413.236 404.392 342.384 332.587 342.384 244.864H338.384C338.384 334.773 411.004 408.392 501.424 408.392V404.392ZM342.384 244.864C342.384 156.165 413.236 84.848 501.424 84.848V80.848C411.004 80.848 338.384 153.979 338.384 244.864H342.384ZM501.424 84.848C574.585 84.848 658.512 142.6 658.512 257.064H662.512C662.512 140.216 576.615 80.848 501.424 80.848V84.848ZM658.512 257.064V281.952H662.512V257.064H658.512ZM660.512 279.952H604.88V283.952H660.512V279.952ZM1004.24 0.375992H1006.24V-1.62401H1004.24V0.375992ZM1004.24 290.736V292.736H1006.24V290.736H1004.24ZM942.26 290.736H940.26V292.736H942.26V290.736ZM840.755 345.88L840.519 347.866L840.542 347.869L840.566 347.871L840.755 345.88ZM873.94 347.344H875.94V345.344H873.94V347.344ZM873.94 406.392V408.392H875.94V406.392H873.94ZM939.82 116.52L938.588 118.096L941.82 120.622V116.52H939.82ZM939.82 0.375992V-1.62401H937.82V0.375992H939.82ZM1002.24 0.375992V290.736H1006.24V0.375992H1002.24ZM1004.24 288.736H942.26V292.736H1004.24V288.736ZM944.26 290.736V261.456H940.26V290.736H944.26ZM944.26 261.456C944.26 221.653 935.049 191.469 917.606 171.213C900.121 150.908 874.619 140.872 842.708 140.872V144.872C873.748 144.872 898.022 154.6 914.575 173.823C931.17 193.095 940.26 222.203 940.26 261.456H944.26ZM842.708 140.872C787.987 140.872 739.691 183.673 739.691 244.376H743.691C743.691 186.007 790.068 144.872 842.708 144.872V140.872ZM739.691 244.376C739.691 303.739 786.623 341.438 840.519 347.866L840.992 343.894C788.504 337.634 743.691 301.157 743.691 244.376H739.691ZM840.566 347.871C850.888 348.854 863.153 349.344 873.94 349.344V345.344C863.254 345.344 851.119 344.858 840.945 343.889L840.566 347.871ZM871.94 347.344V406.392H875.94V347.344H871.94ZM873.94 404.392H861.74V408.392H873.94V404.392ZM861.74 404.392C758.225 404.392 682.203 332.397 682.203 244.376H678.203C678.203 334.963 756.39 408.392 861.74 408.392V404.392ZM682.203 244.376C682.203 156.668 754.016 84.848 842.219 84.848V80.848C751.815 80.848 678.203 154.452 678.203 244.376H682.203ZM842.219 84.848C879.324 84.848 912.079 97.371 938.588 118.096L941.051 114.944C913.88 93.701 880.267 80.848 842.219 80.848V84.848ZM941.82 116.52V0.375992H937.82V116.52H941.82ZM939.82 2.37599H1004.24V-1.62401H939.82V2.37599ZM1177.4 87.728H1179.4V85.728H1177.4V87.728ZM1177.4 145.312V147.312H1179.4V145.312H1177.4ZM1086.14 402V404H1088.14V402H1086.14ZM1025.14 402H1023.14V404H1025.14V402ZM1175.4 87.728V145.312H1179.4V87.728H1175.4ZM1177.4 143.312C1125.47 143.312 1084.14 187.221 1084.14 239.008H1088.14C1088.14 189.291 1127.82 147.312 1177.4 147.312V143.312ZM1084.14 239.008V402H1088.14V239.008H1084.14ZM1086.14 400H1025.14V404H1086.14V400ZM1027.14 402V241.936H1023.14V402H1027.14ZM1027.14 241.936C1027.14 158.587 1094.59 89.728 1177.4 89.728V85.728C1092.33 85.728 1023.14 156.436 1023.14 241.936H1027.14ZM1171 244.864C1171 156.661 1242.82 84.848 1330.52 84.848V80.848C1240.6 80.848 1167 154.459 1167 244.864H1171ZM1330.52 84.848C1418.72 84.848 1490.54 156.665 1490.54 244.864H1494.54C1494.54 154.455 1420.93 80.848 1330.52 80.848V84.848ZM1490.54 244.864C1490.54 332.572 1418.73 404.392 1330.52 404.392V408.392C1420.93 408.392 1494.54 334.788 1494.54 244.864H1490.54ZM1330.52 404.392C1242.81 404.392 1171 332.575 1171 244.864H1167C1167 334.785 1240.6 408.392 1330.52 408.392V404.392ZM1228 244.864C1228 302.976 1272.24 350.808 1330.52 350.808V346.808C1274.62 346.808 1232 300.944 1232 244.864H1228ZM1330.52 350.808C1389.29 350.808 1433.54 302.983 1433.54 244.864H1429.54C1429.54 300.937 1386.92 346.808 1330.52 346.808V350.808ZM1433.54 244.864C1433.54 186.264 1389.3 138.432 1330.52 138.432V142.432C1386.92 142.432 1429.54 188.296 1429.54 244.864H1433.54ZM1330.52 138.432C1272.23 138.432 1228 186.27 1228 244.864H1232C1232 188.29 1274.63 142.432 1330.52 142.432V138.432Z" fill="#F8F8F8" mask="url(#path-1-inside-1_1334_339)"/>
</svg>
