<svg viewBox="0 0 1493 489" fill="none" xmlns="http://www.w3.org/2000/svg" role="img">
<title>pedro</title>
<path d="M0.816002 488.864V198.992H59.376V227.784C59.376 299.52 94.512 348.808 163.808 348.808C217.488 348.808 260.432 306.352 260.432 244.864C260.432 186.792 214.072 148.24 160.88 141.896C150.632 140.92 138.432 140.432 127.696 140.432V82.848H139.896C244.328 82.848 321.432 155.56 321.432 244.864C321.432 333.68 248.72 406.392 159.416 406.392C125.744 406.392 84.264 395.168 61.816 372.72V488.864H0.816002ZM604.88 281.952H464.824V224.368H598.048C598.048 183.864 559.496 140.432 502.4 140.432C439.448 140.432 401.384 189.72 401.384 243.888C401.384 297.568 438.472 343.44 501.424 347.832C512.16 348.808 523.384 348.808 534.12 348.808V406.392H501.424C412.12 406.392 340.384 333.68 340.384 244.864C340.384 155.072 412.12 82.848 501.424 82.848C575.6 82.848 660.512 141.408 660.512 257.064V281.952H604.88ZM1004.24 0.375993V290.736H942.26V261.456C942.26 182.4 905.659 142.872 842.707 142.872C789.027 142.872 741.691 184.84 741.691 244.376C741.691 302.448 787.563 339.536 840.755 345.88C851.003 346.856 863.203 347.344 873.939 347.344V406.392H861.739C757.307 406.392 680.203 333.68 680.203 244.376C680.203 155.56 752.915 82.848 842.219 82.848C879.795 82.848 912.98 95.536 939.82 116.52V0.375993H1004.24ZM1177.4 87.728V145.312C1126.64 145.312 1086.14 188.256 1086.14 239.008V402H1025.14V241.936C1025.14 157.512 1093.46 87.728 1177.4 87.728ZM1169 244.864C1169 155.56 1241.71 82.848 1330.52 82.848C1419.83 82.848 1492.54 155.56 1492.54 244.864C1492.54 333.68 1419.83 406.392 1330.52 406.392C1241.71 406.392 1169 333.68 1169 244.864ZM1230 244.864C1230 301.96 1273.43 348.808 1330.52 348.808C1388.11 348.808 1431.54 301.96 1431.54 244.864C1431.54 187.28 1388.11 140.432 1330.52 140.432C1273.43 140.432 1230 187.28 1230 244.864Z" fill="#1D1D1D"/>
</svg>
