<svg viewBox="0 0 980 234" fill="none" xmlns="http://www.w3.org/2000/svg">
<title>concept</title>
<path d="M98.452 65.6968H77.48C49.6745 65.6968 29.8807 90.6746 29.8807 117.302C29.8807 143.222 50.617 166.315 79.8364 166.315H124.844V194.121H79.8364C36.4786 194.121 0.425616 159.246 0.425616 116.124C0.425616 75.1224 37.1855 37.8912 79.8364 37.8912H98.452V65.6968ZM122.572 116.124C122.572 73.0016 157.682 37.8912 200.569 37.8912C243.691 37.8912 278.802 73.0016 278.802 116.124C278.802 159.01 243.691 194.121 200.569 194.121C157.682 194.121 122.572 159.01 122.572 116.124ZM152.027 116.124C152.027 143.694 172.999 166.315 200.569 166.315C228.375 166.315 249.347 143.694 249.347 116.124C249.347 88.3182 228.375 65.6968 200.569 65.6968C172.999 65.6968 152.027 88.3182 152.027 116.124ZM410.777 192V112.118C410.777 86.6687 390.276 65.6968 364.827 65.6968C339.142 65.6968 318.641 86.6687 318.641 112.118V192H289.186V114.71C289.186 72.5303 323.825 37.8912 364.827 37.8912C406.771 37.8912 440.232 73.2372 440.232 114.946V192H410.777ZM548.424 65.6968H527.452C499.646 65.6968 479.853 90.6746 479.853 117.302C479.853 143.222 500.589 166.315 529.808 166.315H574.816V194.121H529.808C486.45 194.121 450.397 159.246 450.397 116.124C450.397 75.1224 487.157 37.8912 529.808 37.8912H548.424V65.6968ZM701.204 134.032H633.575V106.227H697.905C697.905 86.6687 679.289 65.6968 651.719 65.6968C621.321 65.6968 602.942 89.4964 602.942 115.653C602.942 141.573 620.85 163.723 651.248 165.844C656.432 166.315 661.852 166.315 667.036 166.315V194.121H651.248C608.126 194.121 573.486 159.01 573.486 116.124C573.486 72.766 608.126 37.8912 651.248 37.8912C687.065 37.8912 728.067 66.168 728.067 122.015V134.032H701.204ZM738.046 233.944V93.9736H766.323V107.876C766.323 142.516 783.289 166.315 816.75 166.315C842.671 166.315 863.407 145.814 863.407 116.124C863.407 88.0826 841.021 69.467 815.336 66.4037C810.388 65.9324 804.497 65.6968 799.313 65.6968V37.8912H805.204C855.631 37.8912 892.862 73.0016 892.862 116.124C892.862 159.01 857.752 194.121 814.629 194.121C798.37 194.121 778.341 188.701 767.501 177.862V233.944H738.046ZM932.411 68.0532V120.13C932.411 144.636 950.084 165.137 976.476 166.315V194.121C935.946 194.121 902.956 159.01 902.956 118.245V0.660002H932.411V40.2476H979.539V68.0532H932.411Z" fill="#1D1D1D"/>
</svg>
