<svg viewBox="0 0 985 171" fill="none" xmlns="http://www.w3.org/2000/svg">
<path d="M83.3604 140.53L83.1905 120.471C103.079 120.471 118.378 103.133 118.378 84.6042C118.378 64.3758 104.609 47.8871 84.8903 47.8871H56.1626V84.4342C56.1626 115.372 34.0643 140.53 0.066925 140.53V120.471C21.1453 120.471 34.9142 105.003 34.9142 82.7344V27.8286H82.6805C117.358 27.8286 139.626 53.3267 139.626 84.2643C139.626 115.202 114.638 140.53 83.3604 140.53ZM266.986 83.9243V139H245.738V127.611C238.938 134.07 226.189 140.53 210.89 140.53C179.783 140.53 154.625 115.202 154.625 83.9243C154.625 52.9867 179.783 27.8286 210.89 27.8286C241.998 27.8286 266.986 52.9867 266.986 83.9243ZM175.023 83.5843C175.023 105.173 191.852 120.471 211.23 120.471C231.969 120.471 247.608 105.343 247.608 83.5843C247.608 62.6759 231.119 47.8871 211.57 47.8871C190.832 47.8871 175.023 64.0358 175.023 83.5843ZM284.669 170.958V169.258C285.689 153.109 293.848 138.83 305.917 129.651C292.998 119.961 284.499 103.983 284.499 86.6441V31.0584H305.747V87.834C305.747 105.683 320.196 120.471 337.704 120.471C355.553 120.471 369.492 106.023 369.492 87.834V31.0584H390.74V86.6441C390.74 116.222 366.432 140.53 337.704 140.53C320.706 140.53 306.597 152.089 306.087 170.958H284.669ZM582.517 82.5644V139H561.269V82.5644C561.269 64.2058 545.8 49.417 527.442 49.417C509.423 49.417 494.124 64.2058 494.124 82.5644V101.943H472.876V0.970736H494.804V39.2178C504.153 32.0783 515.203 27.8286 527.612 27.8286C557.869 27.8286 582.517 52.4767 582.517 82.5644ZM692.143 97.1833H643.357V77.1248H689.763C689.763 63.0159 676.334 47.8871 656.446 47.8871C634.517 47.8871 621.258 65.0557 621.258 83.9243C621.258 102.623 634.177 118.602 656.106 120.131C659.845 120.471 663.755 120.471 667.495 120.471V140.53H656.106C624.998 140.53 600.01 115.202 600.01 84.2643C600.01 52.9867 624.998 27.8286 656.106 27.8286C681.944 27.8286 711.521 48.2271 711.521 88.5139V97.1833H692.143ZM747.618 0.970736V83.9243C747.618 102.113 760.197 118.432 780.426 119.791C783.995 119.961 787.565 119.961 791.305 119.961V140.53H780.426C750.508 140.53 726.03 116.222 726.03 86.1341V0.970736H747.618ZM821.323 0.970736V83.9243C821.323 102.113 833.903 118.432 854.131 119.791C857.701 119.961 861.27 119.961 865.01 119.961V140.53H854.131C824.213 140.53 799.735 116.222 799.735 86.1341V0.970736H821.323ZM871.741 84.2643C871.741 53.1567 897.069 27.8286 928.006 27.8286C959.114 27.8286 984.442 53.1567 984.442 84.2643C984.442 115.202 959.114 140.53 928.006 140.53C897.069 140.53 871.741 115.202 871.741 84.2643ZM892.989 84.2643C892.989 104.153 908.118 120.471 928.006 120.471C948.065 120.471 963.193 104.153 963.193 84.2643C963.193 64.2058 948.065 47.8871 928.006 47.8871C908.118 47.8871 892.989 64.2058 892.989 84.2643Z" fill="#F8F8F8"/>
</svg>
